<svg xmlns="http://www.w3.org/2000/svg" xmlns:xlink="http://www.w3.org/1999/xlink" width="41" height="37" viewBox="0 0 41 37">
    <defs>
        <path id="a" d="M17.546.053v17.236H.141V.053z"/>
        <path id="c" d="M0 10.338V.117h36.512v20.442H0z"/>
    </defs>
    <g fill="none" fill-rule="evenodd">
        <path fill="#FEFEFE" d="M30.828 32.13a.584.584 0 0 1-.424-.181l-3.48-3.67a.572.572 0 0 1 .026-.814.586.586 0 0 1 .823.025l3.036 3.203 5.166-5.946a.586.586 0 0 1 .82-.06.572.572 0 0 1 .062.812l-5.588 6.431a.584.584 0 0 1-.429.2h-.012"/>
        <g transform="translate(23.038 19.477)">
            <mask id="b" fill="#fff">
                <use xlink:href="#a"/>
            </mask>
            <path fill="#FEFEFE" d="M8.849 17.289a8.769 8.769 0 0 1-3.096-.568c-3.9-1.47-6.205-5.486-5.48-9.55a.58.58 0 0 1 .675-.467.577.577 0 0 1 .472.668c-.63 3.52 1.367 6.999 4.746 8.272a7.553 7.553 0 0 0 5.766-.167 7.447 7.447 0 0 0 3.958-4.158 7.355 7.355 0 0 0-.169-5.713 7.46 7.46 0 0 0-4.197-3.92C8.638.598 5.311 1.394 3.244 3.664a.584.584 0 0 1-.822.042.572.572 0 0 1-.043-.813C4.765.27 8.607-.647 11.938.608c4.484 1.69 6.745 6.678 5.04 11.12a8.597 8.597 0 0 1-4.57 4.8 8.747 8.747 0 0 1-3.56.76" mask="url(#b)"/>
        </g>
        <g transform="translate(0 .114)">
            <mask id="d" fill="#fff">
                <use xlink:href="#c"/>
            </mask>
            <path fill="#FEFEFE" d="M.582 20.559A.579.579 0 0 1 0 19.982V.692C0 .375.26.118.582.118H4.95c.322 0 .582.257.582.576v2.166c0 .19-.095.369-.254.476-.41.276-.653.733-.653 1.222 0 .814.668 1.476 1.49 1.476s1.491-.662 1.491-1.476c0-.489-.244-.946-.653-1.222a.575.575 0 0 1-.255-.476V.693c0-.319.26-.576.582-.576h3.74c.322 0 .582.257.582.576v2.166c0 .19-.095.369-.254.476a1.474 1.474 0 0 0-.653 1.222c0 .814.669 1.476 1.49 1.476.822 0 1.491-.662 1.491-1.476 0-.489-.244-.946-.653-1.222a.574.574 0 0 1-.254-.476V.693c0-.319.26-.576.582-.576h3.74c.321 0 .582.257.582.576v2.166c0 .19-.095.369-.254.476-.41.276-.653.733-.653 1.222 0 .814.668 1.476 1.49 1.476s1.49-.662 1.49-1.476c0-.49-.243-.946-.652-1.222a.575.575 0 0 1-.255-.476V.693c0-.319.26-.576.582-.576h3.74c.321 0 .582.257.582.576v2.166c0 .19-.095.369-.254.476a1.475 1.475 0 0 0-.653 1.222c0 .814.669 1.476 1.49 1.476.822 0 1.491-.662 1.491-1.476 0-.489-.244-.946-.653-1.222a.575.575 0 0 1-.254-.476V.693c0-.319.26-.576.581-.576h3.74c.322 0 .582.257.582.576v2.166c0 .19-.095.369-.254.476a1.475 1.475 0 0 0-.653 1.222c0 .814.669 1.476 1.49 1.476.823 0 1.491-.662 1.491-1.476 0-.489-.244-.946-.653-1.222a.574.574 0 0 1-.254-.476V.693c0-.319.26-.576.582-.576h4.368c.322 0 .582.257.582.576V18.29c0 .319-.26.577-.582.577a.579.579 0 0 1-.582-.577V1.27h-3.204v1.309c.573.496.907 1.215.907 1.979 0 1.45-1.19 2.629-2.654 2.629s-2.654-1.18-2.654-2.63c0-.763.334-1.482.907-1.978V1.269h-2.577v1.308c.574.497.908 1.216.908 1.98 0 1.45-1.191 2.629-2.654 2.629-1.464 0-2.655-1.18-2.655-2.63 0-.763.334-1.482.907-1.978V1.269h-2.576v1.308c.573.497.907 1.216.907 1.98 0 1.45-1.19 2.629-2.654 2.629-1.463 0-2.654-1.18-2.654-2.63 0-.763.334-1.482.907-1.978V1.269h-2.576v1.309c.573.496.907 1.215.907 1.979 0 1.45-1.191 2.629-2.655 2.629-1.463 0-2.653-1.18-2.653-2.63 0-.763.334-1.482.907-1.979V1.27H7.862v1.308c.573.497.908 1.216.908 1.98 0 1.45-1.191 2.629-2.655 2.629-1.463 0-2.654-1.18-2.654-2.63 0-.763.334-1.482.908-1.979V1.27H1.164v18.713c0 .319-.26.577-.582.577" mask="url(#d)"/>
        </g>
        <path fill="#FEFEFE" d="M24.778 32.61h-10.82a.579.579 0 0 1-.582-.576c0-.318.26-.576.582-.576h10.82c.321 0 .582.258.582.576 0 .318-.26.576-.582.576"/>
        <path fill="#FEFEFE" d="M13.958 32.61c-1.91 0-3.444-.639-4.56-1.9-2.118-2.39-2.092-6.33-1.986-7.89-1.604-.002-5.475-.154-6.852-1.479-.366-.352-.56-.783-.56-1.245 0-.318.26-.576.582-.576a.58.58 0 0 1 .582.576c0 .094.021.24.207.419.983.946 4.609 1.204 6.662 1.146a.57.57 0 0 1 .448.19.572.572 0 0 1 .146.46c-.007.051-.634 5.069 1.648 7.642.885.998 2.124 1.505 3.683 1.505.321 0 .582.258.582.576 0 .318-.26.576-.582.576"/>
        <path fill="#FEFEFE" d="M9.109 29.869a.582.582 0 0 1-.423-.18l-7.658-8.017a.572.572 0 0 1 .022-.815.585.585 0 0 1 .823.023l7.658 8.016a.572.572 0 0 1-.022.815.583.583 0 0 1-.4.158"/>
    </g>
</svg>
