<svg xmlns="http://www.w3.org/2000/svg" width="185" height="20" viewBox="0 0 185 20">
    <g fill="#FFF" fill-rule="evenodd" opacity=".5">
        <path d="M140.966 10.84c.05.115.058.24.033.389a.695.695 0 0 1-.23.41.726.726 0 0 1-.399.175c-.147.014-.326 0-.536-.037l-.364-.07a.793.793 0 0 1-.22-.06.11.11 0 0 1-.045-.076 1.662 1.662 0 0 1 .033-.267l.202-1.056.645.116c.283.054.488.119.615.193a.63.63 0 0 1 .266.284zM141 8.62c-.114-.062-.332-.122-.651-.18l-.545-.101-.229 1.19.547.1c.285.051.5.067.646.045a.655.655 0 0 0 .349-.155.547.547 0 0 0 .164-.309.55.55 0 0 0-.035-.347.508.508 0 0 0-.246-.243zm4.834 1.478c0 3.126-2.582 5.656-5.767 5.656-3.184 0-5.764-2.53-5.764-5.656s2.58-5.656 5.764-5.656c3.185 0 5.767 2.53 5.767 5.656zm-3.393-1.494a1.282 1.282 0 0 0-.49-.531 1.653 1.653 0 0 0-.316-.153l.163-.86-.841-.155-.155.803-.54-.1.154-.802-.843-.156-.155.805-1.286-.237-.128.676.196.036c.132.022.218.05.259.083.043.03.068.068.08.112.011.043.003.137-.024.283l-.52 2.72c-.027.143-.052.233-.08.27a.214.214 0 0 1-.117.077.666.666 0 0 1-.27-.02l-.198-.031-.129.672 1.286.234-.152.803.842.156.153-.804.479.088.062.01-.152.804.841.153.167-.87c.146-.002.277-.014.392-.033.313-.06.57-.186.77-.377.201-.186.326-.41.375-.67a1.134 1.134 0 0 0-.392-1.108 2.192 2.192 0 0 0-.497-.288c.23-.034.422-.092.576-.18.154-.087.28-.197.376-.33.098-.132.163-.28.193-.44.045-.212.019-.43-.079-.64zm10.653 2.764c0 2.045-1.364 4.383-4.249 4.383-1.52 0-2.281-.647-2.281-1.762 0-.388.065-.772.143-1.144l1.3-6.369h1.9l-.76 3.592h.027a2.596 2.596 0 0 1 1.98-.891c1.338.003 1.94 1.072 1.94 2.19zm-1.981.385c0-.603-.263-1.08-.838-1.08-.683 0-1.35.682-1.574 1.776l-.118.515c-.027.207-.079.425-.066.697.013.447.288.693.721.693 1.09-.003 1.875-1.494 1.875-2.6zm2.497 3.86h1.888l1.22-6.292h-1.89l-1.218 6.292zm2.57-9.029c-.578 0-1.077.425-1.089 1.055 0 .552.393.901.917.901.604 0 1.114-.387 1.114-1.042 0-.556-.393-.914-.942-.914zm4.537.976L158.79 8l-.263 1.322h-.826l-.262 1.403h.813l-.5 2.509c-.09.477-.13.823-.13 1.17 0 .785.539 1.35 1.666 1.35.405 0 .875-.052 1.114-.14l.225-1.455c-.172.026-.353.026-.524.026-.408 0-.54-.221-.54-.53 0-.218.052-.542.105-.798l.435-2.136h1.36l.278-1.403h-1.363l.34-1.758zm1.08 5.61c0 1.632 1.114 2.57 2.699 2.57.763 0 1.418-.129 1.822-.321L166.305 14c-.33.13-.72.258-1.27.258-.71 0-1.26-.44-1.26-1.3 0-1.182.824-2.304 2.177-2.304.381 0 .644.065.867.155l.457-1.415c-.275-.117-.747-.222-1.296-.222-2.44.006-4.183 1.757-4.183 3.997zm12.128-1.403c0 2.303-1.598 3.987-3.829 3.987-1.623 0-2.715-1.042-2.715-2.6 0-2.185 1.547-3.974 3.83-3.974 1.72 0 2.714 1.158 2.714 2.587zm-1.953.011c0-.578-.247-1.195-1.009-1.195-1.087 0-1.637 1.557-1.622 2.533 0 .734.366 1.222 1.023 1.222 1.034.001 1.608-1.478 1.608-2.56zm5.089-5.194c-.577 0-1.076.425-1.086 1.055 0 .552.395.901.919.901.605 0 1.114-.387 1.114-1.042 0-.556-.395-.914-.947-.914zm-2.567 9.029h1.886l1.222-6.292h-1.888l-1.22 6.292zm8.458-6.433c-.853 0-1.652.361-2.254 1.184h-.026l.132-1.042h-1.676c-.08.555-.185 1.249-.343 2.047l-.815 4.245h1.888l.537-2.793c.263-1.385.985-2.148 1.602-2.148.473 0 .63.31.63.747 0 .234-.026.491-.068.707l-.667 3.487h1.887l.71-3.653c.052-.309.105-.784.105-1.063-.002-1.087-.593-1.718-1.642-1.718zM86.886 2.5h-2.672c-.83 0-1.447.225-1.812 1.05l-5.134 11.613h3.631s.593-1.562.727-1.904l4.428.006c.104.442.422 1.898.422 1.898h3.208L86.886 2.499zm-4.265 8.167C82.906 9.939 84 7.126 84 7.126c-.019.034.282-.733.46-1.21l.234 1.092.801 3.659h-2.873zm-5.111.35c-.025 2.631-2.388 4.33-6.023 4.33-1.55-.017-3.043-.321-3.853-.676l.487-2.835.446.202c1.135.473 1.87.664 3.256.664.993 0 2.057-.39 2.068-1.238.006-.555-.446-.95-1.793-1.572-1.313-.606-3.051-1.622-3.029-3.442.019-2.463 2.427-4.182 5.844-4.182 1.34 0 2.413.276 3.098.532l-.468 2.747-.312-.147a6.392 6.392 0 0 0-2.588-.485c-1.354 0-1.982.563-1.982 1.09-.007.593.733.984 1.943 1.572 1.998.901 2.92 2 2.906 3.44zM47.14 2.63l.044-.254h5.361c.723.027 1.306.257 1.507 1.03l1.166 5.598c-1.146-2.928-3.906-5.364-8.079-6.374zm15.636-.133L57.33 15.144l-3.659.006-3.097-10.566c2.227 1.423 4.123 3.68 4.79 5.252l.362 1.305 3.387-8.64 3.663-.003zm1.399-.011h3.46l-2.165 12.67h-3.458l2.163-12.67zM127.732 14.916a.332.332 0 0 0-.158-.042.328.328 0 0 0-.28.16.312.312 0 0 0 .12.43.335.335 0 0 0 .32 0 .305.305 0 0 0 .12-.118.304.304 0 0 0 0-.313.293.293 0 0 0-.122-.117zm-.077.45l-.03-.054a.282.282 0 0 0-.06-.08.078.078 0 0 0-.044-.012h-.032v.145h-.057v-.34h.12c.042 0 .071.003.088.01a.078.078 0 0 1 .044.033.084.084 0 0 1 .016.05c0 .024-.01.045-.027.065a.113.113 0 0 1-.072.03c.012.005.022.012.03.019a.399.399 0 0 1 .051.067l.043.066h-.07v.001zm-.033-.207c-.012.012-.034.014-.066.014h-.07v-.1h.066c.027 0 .044.001.055.005.01.004.017.012.024.017a.05.05 0 0 1 .008.027.045.045 0 0 1-.017.037zm-.318-3.43a.267.267 0 0 0-.137.23c0 .044.012.088.035.13a.279.279 0 0 0 .234.134.276.276 0 0 0 .234-.135.257.257 0 0 0-.002-.262.257.257 0 0 0-.1-.098.268.268 0 0 0-.264 0zm.244.105a.077.077 0 0 1 .015.05.09.09 0 0 1-.027.065c-.018.02-.043.027-.072.03a.096.096 0 0 1 .03.018.345.345 0 0 1 .05.067l.044.067h-.07l-.03-.052a.272.272 0 0 0-.058-.08.071.071 0 0 0-.046-.013h-.032v.145h-.058v-.34h.121c.04 0 .071.003.088.01a.099.099 0 0 1 .045.033zm-.133.003a.2.2 0 0 1 .057.007c.01.004.018.01.023.016.006.01.01.017.01.028a.052.052 0 0 1-.017.038c-.014.01-.035.014-.067.014h-.069v-.102h.063v-.001zm-7.387-1.396c.181 0 .2.018.232.024.02.175-.113.995-.754.995-.33 0-.416-.245-.416-.392 0-.285.158-.627.938-.627zm-17.257 0c.183 0 .202.018.232.024.02.175-.112.995-.753.995-.33 0-.417-.245-.417-.392 0-.285.158-.627.938-.627zM118.575 0c-2.58 0-4.932.956-6.706 2.525a10.095 10.095 0 0 0-6.703-2.523h-.064c-5.489.035-9.934 4.397-9.934 9.767 0 5.39 4.48 9.766 9.998 9.766 2.578 0 4.929-.954 6.703-2.523a9.754 9.754 0 0 1-1.023-1.067h2.065c-.311.372-.65.721-1.015 1.046h-.003.001c-.008.009-.017.014-.025.022a10.093 10.093 0 0 0 6.71 2.526c5.522-.002 9.997-4.376 9.996-9.77v-.005c0-5.393-4.478-9.765-10-9.764zM99.25 12.257l.606-3.734-1.368 3.734h-.733l-.095-3.734-.648 3.734h-1.027l.851-4.953h1.553l.055 3.04 1.049-3.04h1.685l-.84 4.953H99.25zm3.631-.006l.035-.398c-.016.002-.34.478-1.092.478-.393 0-1.027-.21-1.027-1.12 0-1.159.967-1.543 1.888-1.543.144 0 .457.026.457.026s.035-.071.035-.262c0-.315-.29-.358-.686-.358-.699 0-1.16.182-1.16.182l.154-.896s.56-.229 1.29-.229c.377 0 1.461.04 1.461 1.254l-.417 2.864h-.938v.002zm3.962-1.263c0 1.382-1.37 1.323-1.61 1.323-.893 0-1.169-.121-1.194-.128l.142-.91c.001-.007.448.159.945.159.287 0 .66-.028.66-.363 0-.5-1.333-.38-1.333-1.571 0-1.05.799-1.358 1.587-1.358.608 0 .982.081.982.081l-.135.918s-.577-.046-.727-.046c-.378 0-.585.08-.585.34 0 .519 1.268.263 1.268 1.555zm1.646.362c.094 0 .201-.032.274-.032l-.133.883c-.107.03-.41.134-.798.137-.496.004-.848-.267-.848-.881 0-.412.605-3.81.628-3.833h1.064l-.108.608h.531l-.136.98h-.563l-.3 1.803c-.022.143.018.335.389.335zm2.34-3.233c1.17 0 1.519.835 1.519 1.52 0 .275-.14.949-.14.949h-2.164s-.2.832.943.832c.536 0 1.13-.256 1.13-.256l-.187 1.002s-.343.171-1.124.171c-.847 0-1.84-.35-1.84-1.818.002-1.273.793-2.4 1.864-2.4zm2.583 4.147h-1.093l.664-4.03h.991l-.095.584s.353-.636.83-.636c.139 0 .206.014.206.014-.142.281-.267.54-.396 1.206-.74-.257-.796 1.14-1.107 2.862zm4.162-.063s-.572.143-.93.143c-1.271 0-1.916-.856-1.916-2.153 0-1.956 1.195-2.998 2.424-2.998.555 0 1.198.255 1.198.255l-.174 1.102s-.435-.298-.976-.298c-.724 0-1.374.676-1.374 1.902 0 .605.303 1.168 1.059 1.168.359 0 .88-.255.88-.255l-.19 1.134zm2.563.05l.036-.398c-.018.002-.342.478-1.092.478-.393 0-1.028-.21-1.028-1.12 0-1.159.967-1.543 1.887-1.543.145 0 .458.026.458.026s.036-.07.036-.262c0-.314-.29-.358-.687-.358-.699 0-1.16.183-1.16.183l.155-.896s.56-.23 1.29-.23c.377 0 1.462.04 1.462 1.255l-.418 2.863c-.001.002-.94.002-.94.002zm2.212.013h-1.093l.664-4.03h.992l-.095.584s.354-.636.83-.636c.14 0 .205.014.205.014-.14.281-.266.54-.395 1.206-.74-.257-.797 1.14-1.108 2.862zm5.368-.464a.305.305 0 0 1 0 .314.314.314 0 0 1-.12.118.33.33 0 0 1-.32 0 .314.314 0 0 1 .002-.55.334.334 0 0 1 .157-.041.328.328 0 0 1 .28.159zm-1.554-3.098l.23-1.392 1.068-.002-.814 4.945h-1.036l.047-.372s-.354.436-.992.436c-.885 0-1.32-.835-1.32-1.688 0-1.32.813-2.47 1.789-2.47.627.002 1.028.543 1.028.543zm-14.84 1.059h-1.18c0-.068.11-.713.691-.713.6 0 .49.66.49.713zm13.996-.6c.383 0 .58.257.58.862 0 .548-.279 1.283-.855 1.283-.384 0-.563-.315-.563-.807 0-.807.37-1.338.838-1.338zM8.036 5.527a1.816 1.816 0 0 0-.667-.719 3.128 3.128 0 0 0-1.061-.389 8.684 8.684 0 0 0-1.442-.113l-2.55.002a.639.639 0 0 0-.587.465L.013 12.235c-.062.253.104.464.37.464h1.22a.625.625 0 0 0 .586-.464l.42-1.812a.625.625 0 0 1 .585-.462h.35c1.493-.002 2.649-.307 3.48-.917.835-.61 1.246-1.418 1.246-2.418 0-.438-.072-.806-.234-1.099zM5.402 7.965c-.369.27-.882.405-1.544.405h-.299c-.266 0-.429-.21-.37-.465l.367-1.585a.618.618 0 0 1 .581-.463l.4-.002c.468 0 .824.08 1.063.237.235.154.354.4.352.726.007.496-.183.877-.55 1.147zm16.787-.974l-4.865 8.216c-.157.257-.503.464-.766.464l-1.265.001c-.262 0-.348-.208-.188-.464l1.081-1.881s.087-.11.01-.722c-.166-1.111-.997-5.832-.997-5.832-.06-.256.102-.465.366-.465l1.094-.002c.335 0 .604.22.665.478l.544 3.274.203.003c.17-.301 1.919-3.298 1.919-3.298.167-.253.505-.465.768-.465 0 0 1.175.003 1.464 0 .435-.01-.033.693-.033.693zm8.022-1.436a1.888 1.888 0 0 0-.673-.722 3 3 0 0 0-1.06-.389 8.407 8.407 0 0 0-1.437-.112l-2.554.002a.634.634 0 0 0-.582.464l-1.718 7.466c-.062.253.109.462.368.462l1.223-.001a.633.633 0 0 0 .587-.462l.414-1.813a.633.633 0 0 1 .587-.463h.35c1.495 0 2.654-.307 3.488-.915.824-.616 1.242-1.421 1.242-2.422-.005-.436-.08-.805-.235-1.095zm-2.634 2.441c-.368.265-.882.4-1.54.4h-.304a.365.365 0 0 1-.374-.465l.37-1.582a.62.62 0 0 1 .583-.462l.396-.003c.47.003.822.08 1.062.236.24.157.352.402.355.727.003.495-.181.877-.548 1.15zM13.924 6.594c-.461-.26-1.189-.39-2.183-.39a9.66 9.66 0 0 0-1.477.115c-.366.056-.401.067-.626.116-.465.101-.538.564-.538.564l-.15.613c-.084.392.142.377.237.344.202-.06.315-.122.73-.215.396-.09.813-.157 1.144-.153.488 0 .861.052 1.11.157.246.106.369.29.369.554l-.022.172-.176.109c-.693.043-1.193.107-1.8.195a5.593 5.593 0 0 0-1.55.425c-.464.205-.81.48-1.05.828-.234.351-.35.776-.35 1.276 0 .47.169.858.497 1.158.33.295.766.438 1.287.438.33-.001.585-.027.767-.07l.591-.204.5-.277.462-.304.006.01-.046.194-.003.008v.002c-.05.238.094.434.326.457l.005.005H13.118l.016-.007a.631.631 0 0 0 .525-.457l.89-3.848.047-.313.021-.294c.004-.546-.232-.95-.693-1.208zm-1.97 4.327l-.19.25-.48.248c-.226.092-.44.138-.639.138-.3 0-.536-.044-.695-.133l-.236-.457c0-.248.057-.444.179-.595l.517-.352c.222-.074.492-.137.805-.181.28-.035.831-.098.903-.1l.085.149c-.016.084-.173.738-.249 1.033zm30.492-7.03h.408v.168h-.408v.543l.001.146.03.098.064.062.125.02.103-.015.076-.023h.01v.179l-.123.024-.116.01-.278-.1-.094-.313V4.06h-.137V3.89h.137v-.338h.202v.338zm-6.343 2.708c-.463-.26-1.19-.39-2.182-.39a9.31 9.31 0 0 0-1.476.117c-.366.054-.403.065-.629.113-.463.1-.535.565-.535.565l-.15.613c-.083.392.137.374.24.344.204-.06.314-.12.724-.216.394-.09.815-.155 1.147-.153.486 0 .86.052 1.108.157a.56.56 0 0 1 .368.554l-.018.17-.175.112c-.7.042-1.201.106-1.803.194a5.595 5.595 0 0 0-1.549.425c-.463.205-.813.48-1.051.83-.236.35-.35.775-.35 1.27 0 .473.167.861.5 1.16.331.294.762.44 1.284.44.328-.003.583-.024.765-.071l.59-.2.505-.278.457-.307.008.01-.041.197-.005.003.002.004c-.055.238.09.435.325.456l.001.005h1.133l.02-.006a.625.625 0 0 0 .519-.46l.893-3.843.047-.316.025-.295c.001-.543-.232-.946-.697-1.204zm-1.965 4.327l-.198.253-.476.246c-.226.09-.44.138-.636.138-.31 0-.54-.044-.694-.133l-.239-.456c0-.249.058-.443.175-.597.118-.145.298-.264.523-.35.218-.075.489-.136.804-.18.277-.036.827-.1.898-.101l.086.148c-.012.084-.17.735-.243 1.032zm6.544-6.069l.003.001-1.634 7.4-.059.088c-.095.208-.304.377-.527.377H37.33l-.019-.026c-.217-.033-.358-.205-.307-.433l-.002-.006.05-.213 1.53-6.94.054-.241.06-.095c.1-.204.301-.37.526-.37h1.093c.263-.004.423.203.367.458zm4.057-.88l.093.331v.77h-.2v-.677l-.013-.145-.024-.115-.072-.068-.13-.024-.168.042-.169.107.004.058.004.063v.759h-.199V4.4l-.01-.147-.029-.113-.067-.069-.135-.024-.165.041-.167.103v.886h-.197V3.89h.198v.131l.188-.12.198-.044.207.049.127.141.219-.147.215-.044.292.12z"/>
    </g>
</svg>
